<svg id="Layer_1" data-name="Layer 1" xmlns="http://www.w3.org/2000/svg" viewBox="0 0 200 200"><defs><style>.cls-1{fill:#d3d3d3;}.cls-2{fill:#cc5867;}.cls-3{fill:none;stroke:#d3d3d3;stroke-miterlimit:10;}.cls-4{font-size:25.61px;fill:#fff;font-family:Chalkboard SE;}.cls-5{letter-spacing:-2px;}</style></defs><title>Icons_Snackoo</title><path class="cls-1" d="M188.84,188.45H11.61a3.6,3.6,0,0,1-3.6-3.6V107.72a3.6,3.6,0,0,1,3.85-3.59l177.22,12.5a3.6,3.6,0,0,1,3.34,3.59v64.64A3.6,3.6,0,0,1,188.84,188.45Z"/><path class="cls-2" d="M20,11.55a38,38,0,0,0-3.51,4.61,44.47,44.47,0,0,0-2.86,5,37,37,0,0,0-3.39,11A29.09,29.09,0,0,0,10,37.91a27.25,27.25,0,0,0,.85,5.67A29.26,29.26,0,0,0,12.78,49l0.62,1.29c0.22,0.43.47,0.84,0.7,1.25,0.45,0.84,1,1.63,1.5,2.46,1.06,1.6,2.17,3.16,3.38,4.65s2.49,2.92,3.81,4.32,2.73,2.7,4.2,3.94,3,2.45,4.52,3.58a77,77,0,0,0,9.8,6.06C43,77.4,44.77,78.22,46.53,79a56.91,56.91,0,0,0,5.37,2l-0.58.66C46.07,70,40.75,58.38,35.56,46.67L27.75,29.13Zm0,0,8.14,17.4,8.06,17.43C41.61,58,46.87,69.66,52.2,81.3l0.45,1-1-.32a57.65,57.65,0,0,1-5.48-2.06c-1.79-.76-3.55-1.61-5.27-2.52A78,78,0,0,1,31,71.21,63.47,63.47,0,0,1,14.91,54.41c-0.5-.82-1-1.64-1.49-2.51-0.23-.43-0.48-0.85-0.7-1.29L12.1,49.27a30,30,0,0,1-1.89-5.54,27.87,27.87,0,0,1-.8-5.8,29.63,29.63,0,0,1,.33-5.84,36.77,36.77,0,0,1,3.67-11,44.59,44.59,0,0,1,3-5A38,38,0,0,1,20,11.55Z"/><path class="cls-2" d="M19.34,11.86a38,38,0,0,1,5.75.21,44.67,44.67,0,0,1,5.68,1A37.09,37.09,0,0,1,41.47,17.4a30.67,30.67,0,0,1,4.62,3.5A28.31,28.31,0,0,1,50,25.23a31.08,31.08,0,0,1,3,5c0.39,0.89.82,1.76,1.14,2.68l0.51,1.37L55,35.64a67,67,0,0,1,2.71,22.91,79.63,79.63,0,0,1-1.39,11.49c-0.37,1.9-.8,3.78-1.32,5.64a57,57,0,0,1-1.81,5.53l-0.4,1-0.48-1C46.8,69.7,41.2,58.18,35.73,46.61L27.5,29.25Zm0,0,8.56,17.2,8.48,17.23c5.67,11.48,11.21,23,16.82,34.53l-0.88,0a56.32,56.32,0,0,0,1.75-5.42c0.5-1.84.95-3.7,1.32-5.57a78.69,78.69,0,0,0,1.43-11.35,70.49,70.49,0,0,0-.31-11.43c-0.2-1.9-.5-3.78-0.87-5.65s-0.83-3.71-1.38-5.55L53.84,34.5l-0.47-1.34c-0.3-.9-0.7-1.76-1.08-2.63a30.36,30.36,0,0,0-2.86-4.91,27.66,27.66,0,0,0-3.74-4.28,30.09,30.09,0,0,0-4.5-3.5,37.29,37.29,0,0,0-10.47-4.53,44.48,44.48,0,0,0-5.64-1.1A37.94,37.94,0,0,0,19.34,11.86Z"/><rect class="cls-3" x="177.14" y="84.06" width="5.48" height="43.25" rx="1.6" ry="1.6" transform="translate(8.79 -13.71) rotate(4.48)"/><rect class="cls-3" x="185.07" y="105.65" width="5.48" height="24.96" rx="1.6" ry="1.6" transform="translate(-11.36 20.37) rotate(-6.03)"/><path class="cls-2" d="M74.63,63.21a14.5,14.5,0,0,0-3.6-.14,13.61,13.61,0,0,0-1.77.29,11.52,11.52,0,0,0-1.68.56,4.89,4.89,0,0,0-.8.38,5.55,5.55,0,0,0-.76.44l-0.72.51-0.64.59a4.8,4.8,0,0,0-.59.65,6.4,6.4,0,0,0-.54.69,12.52,12.52,0,0,0-.87,1.52l-0.4.82-0.33.81c-0.24.53-.38,1.12-0.57,1.67s-0.31,1.14-.4,1.73-0.2,1.17-.27,1.76-0.11,1.18-.12,1.77,0,1.19,0,1.78A24.3,24.3,0,0,0,61,82.54l-0.86-.17c2.39-3.21,4.72-6.47,7.16-9.65l3.64-4.78C72.15,66.36,73.37,64.77,74.63,63.21Zm0,0c-1.09,1.68-2.23,3.33-3.35,5l-3.42,4.94c-2.26,3.31-4.64,6.53-7,9.8l-0.64.9L60,82.76a20.19,20.19,0,0,1-.43-3.7c0-.62,0-1.23,0-1.85s0.08-1.23.15-1.84,0.17-1.22.3-1.83,0.3-1.2.44-1.8,0.36-1.18.63-1.75l0.37-.87c0.13-.27.28-0.54,0.42-0.8a13.47,13.47,0,0,1,1-1.58A7,7,0,0,1,63.55,66a5.3,5.3,0,0,1,.66-0.67l0.72-.61,0.79-.51a6.05,6.05,0,0,1,.82-0.44,5.3,5.3,0,0,1,.86-0.36A10.12,10.12,0,0,1,69.18,63,14,14,0,0,1,71,62.78,12.75,12.75,0,0,1,74.63,63.21Z"/><path class="cls-2" d="M74.44,63.07A12.56,12.56,0,0,1,76,66.34,11.6,11.6,0,0,1,76.53,70a10,10,0,0,1-2.85,6.69,13.32,13.32,0,0,1-1.31,1.28c-0.45.43-1,.78-1.43,1.17s-1,.71-1.53,1-1.05.63-1.6,0.9a25.78,25.78,0,0,1-3.38,1.43,20,20,0,0,1-3.59.88l-1.11.16,0.65-.92C62.7,79.31,65,76,67.32,72.76l3.53-4.87C72,66.28,73.22,64.66,74.44,63.07Zm0,0c-1.05,1.71-2.15,3.38-3.23,5.07l-3.3,5c-2.19,3.36-4.49,6.64-6.73,10l-0.46-.76a24.43,24.43,0,0,0,3.4-.85,24.8,24.8,0,0,0,3.27-1.34c0.53-.26,1-0.54,1.55-0.84s1-.63,1.48-1,1-.7,1.38-1.09,0.87-.78,1.3-1.21A9.27,9.27,0,0,0,76,69.93a11.67,11.67,0,0,0-.31-3.52A14.26,14.26,0,0,0,74.44,63.07Z"/><path class="cls-2" d="M95.42,58.5s-0.08-.12-0.21-0.36l-0.11-.2L95,57.82a0.06,0.06,0,0,0,0,0l0,0.07a2.37,2.37,0,0,0-.15.66,5.94,5.94,0,0,0,1.26,4,16.9,16.9,0,0,0,4.47,3.91,52.48,52.48,0,0,0,6,3.32l0.79,0.36,0.39,0.18h0l-0.11,0a0.36,0.36,0,0,0-.16,0,0.36,0.36,0,0,0-.19.2,0.36,0.36,0,0,0,0,.29,0.33,0.33,0,0,0,.07.1l0,0L106,69.55c-0.81-.83-1.6-1.65-2.35-2.45l-4.12-4.4c-1.21-1.29-2.24-2.34-3-3.06Zm0,0,1.16,1.12c0.74,0.72,1.81,1.72,3.11,2.91l4.47,4c0.82,0.73,1.65,1.51,2.5,2.3l1.26,1.21,0,0a0.68,0.68,0,0,1,.13.18,0.63,0.63,0,0,1-.59.9l-0.16,0-0.07,0L106.87,71l-0.81-.38a32.2,32.2,0,0,1-5.9-3.71,18.22,18.22,0,0,1-4.24-4.32,6.38,6.38,0,0,1-1.14-4,2.39,2.39,0,0,1,.16-0.67l0-.07s0,0,.06,0l0.07,0.11,0.11,0.2C95.34,58.37,95.42,58.5,95.42,58.5Z"/><path class="cls-2" d="M95,57.79a19.46,19.46,0,0,1,4.3,1.58,18.4,18.4,0,0,1,2,1.15,19.85,19.85,0,0,1,1.85,1.4,18.46,18.46,0,0,1,1.67,1.62,19.56,19.56,0,0,1,1.47,1.81,11.55,11.55,0,0,1,1.19,2,7.15,7.15,0,0,1,.41,1.15,3.54,3.54,0,0,1,.12,1.35l-0.11,1-0.72-.7c-2.08-2-4.16-4-6.19-6.08l-3-3.1C96.94,59.9,95.93,58.87,95,57.79Zm0,0c1.12,0.92,2.2,1.88,3.3,2.82l3.23,2.9c2.15,1.93,4.25,3.92,6.34,5.92l-0.83.26a3,3,0,0,0-.1-0.91,6.2,6.2,0,0,0-.34-1,13.19,13.19,0,0,0-1.05-1.92,20.84,20.84,0,0,0-1.34-1.78,15.41,15.41,0,0,0-1.52-1.64A19.22,19.22,0,0,0,100.94,61c-0.61-.44-1.23-0.86-1.88-1.25A22.83,22.83,0,0,0,95,57.79Z"/><path class="cls-2" d="M15.88,73.42s-0.12-.08-0.34-0.25L15.36,73,15.25,73a0.06,0.06,0,0,0-.05,0V73a2.36,2.36,0,0,0,.12.67A6.13,6.13,0,0,0,18,76.88a17.37,17.37,0,0,0,5.61,2.06,39.59,39.59,0,0,0,6.82.87l0.88,0h0.44a0,0,0,0,1,0,0l-0.05,0L30,79.18,26.9,77.9l-5.58-2.27Zm0,0,5.48,2.12L27,77.72l3.17,1.23,1.63,0.63a0.31,0.31,0,0,1,.23.27,0.28,0.28,0,0,1-.28.29H31.28l-0.88,0a39.81,39.81,0,0,1-6.84-1,17.69,17.69,0,0,1-5.61-2.16,6.18,6.18,0,0,1-2.65-3.25A2.39,2.39,0,0,1,15.18,73V72.94s0.05,0,.07,0L15.36,73l0.18,0.14C15.76,73.34,15.88,73.42,15.88,73.42Z"/><path class="cls-2" d="M15.19,72.94a21,21,0,0,1,4.56-.06,18.94,18.94,0,0,1,4.47.94,17.16,17.16,0,0,1,2.12.88,20.34,20.34,0,0,1,2,1.1,12.38,12.38,0,0,1,1.83,1.4,6.8,6.8,0,0,1,.78.86,3.3,3.3,0,0,1,.57,1.05l0.08,0.28-0.28-.11-8.08-3.14Q19.2,74.58,15.19,72.94Zm0,0q4.08,1.47,8.14,3L31.44,79l-0.2.17a3.13,3.13,0,0,0-.51-0.94A6.55,6.55,0,0,0,30,77.39,12.13,12.13,0,0,0,28.22,76a20.07,20.07,0,0,0-2-1.11A16.52,16.52,0,0,0,24.16,74a20,20,0,0,0-4.42-1A21,21,0,0,0,15.19,72.94Z"/><path class="cls-2" d="M126.19,32.74a25.77,25.77,0,0,0-6.26,2.44,21.55,21.55,0,0,0-5.3,4A17.18,17.18,0,0,0,110.17,48a22.09,22.09,0,0,0-.35,3.31c0,1.11,0,2.22,0,3.33s0.18,2.22.33,3.32a39.74,39.74,0,0,0,1.56,6.49,44.62,44.62,0,0,0,2.56,6.17c0.5,1,1,2,1.61,2.93a33,33,0,0,0,1.82,2.78l-0.86.2c1.52-7.3,3-14.61,4.55-21.9l2.35-10.94Zm0,0-2,11-2.08,11c-1.37,7.33-2.87,14.63-4.3,21.95l-0.21,1.06L117,76.88A33.79,33.79,0,0,1,115,74c-0.59-1-1.13-2-1.64-3a45.62,45.62,0,0,1-2.57-6.32A37,37,0,0,1,109,51.22a22.91,22.91,0,0,1,.44-3.4,17.82,17.82,0,0,1,4.82-9,21.42,21.42,0,0,1,5.54-3.94A24.08,24.08,0,0,1,126.19,32.74Z"/><path class="cls-2" d="M125.76,32.65a24,24,0,0,1,5,4.42,21.62,21.62,0,0,1,3.61,5.7,17.67,17.67,0,0,1,1.38,6.64,18.23,18.23,0,0,1-.28,3.4,22.93,22.93,0,0,1-.86,3.3,39.06,39.06,0,0,1-6.54,11.81,46.58,46.58,0,0,1-4.59,5c-0.82.77-1.67,1.52-2.56,2.22a33.39,33.39,0,0,1-2.76,2l-0.93.6,0.2-1.09c1.34-7.34,2.61-14.68,4-22l2.08-11Zm0,0L124,43.71l-1.82,11c-1.19,7.36-2.52,14.7-3.77,22.05l-0.73-.5a32.64,32.64,0,0,0,2.65-2c0.86-.7,1.7-1.41,2.51-2.17a45.64,45.64,0,0,0,4.53-4.85,40.85,40.85,0,0,0,3.74-5.47,37.61,37.61,0,0,0,2.76-6,22,22,0,0,0,.9-3.17,17.54,17.54,0,0,0,.34-3.27,17.08,17.08,0,0,0-1.2-6.44,21.69,21.69,0,0,0-3.35-5.71A25.74,25.74,0,0,0,125.76,32.65Z"/><path class="cls-2" d="M157.45,63.44a19.17,19.17,0,0,0-4.35-2.15l-1.16-.35-1.18-.26a15.21,15.21,0,0,0-2.39-.23,6.65,6.65,0,0,0-1.19,0,7.55,7.55,0,0,0-1.18.14l-1.17.24-1.13.39a6.53,6.53,0,0,0-1.08.48,8.69,8.69,0,0,0-1,.56,17,17,0,0,0-1.92,1.41l-0.93.79-0.85.83c-0.59.53-1.08,1.18-1.62,1.77s-1,1.25-1.43,1.93-0.88,1.34-1.28,2-0.78,1.4-1.11,2.13-0.66,1.46-1,2.21A31.75,31.75,0,0,0,130.08,80l-0.72-.5c4.66-2.7,9.29-5.47,14-8.11l7-4C152.73,66.05,155.08,64.72,157.45,63.44Zm0,0c-2.27,1.46-4.56,2.87-6.85,4.3L143.71,72c-4.58,2.84-9.24,5.55-13.86,8.33l-0.94.57,0.22-1.07A27.69,27.69,0,0,1,130.57,75c0.31-.76.64-1.52,1-2.26s0.76-1.47,1.17-2.19,0.86-1.41,1.34-2.09,1-1.32,1.5-2,1.07-1.26,1.7-1.82l0.91-.87c0.31-.27.63-0.51,1-0.77a18,18,0,0,1,2.06-1.42,9.33,9.33,0,0,1,1.12-.56,7,7,0,0,1,1.16-.47l1.2-.37L145.9,60a8,8,0,0,1,1.24-.11,7.06,7.06,0,0,1,1.24,0,13.82,13.82,0,0,1,2.45.35L152,60.61,153.2,61a20.06,20.06,0,0,1,2.22,1.06A15.61,15.61,0,0,1,157.45,63.44Z"/><path class="cls-2" d="M157.29,63.17a17.16,17.16,0,0,1,.1,4.85,15.61,15.61,0,0,1-1.29,4.72,12.86,12.86,0,0,1-2.9,4,13.27,13.27,0,0,1-2,1.52c-0.36.21-.71,0.44-1.08,0.62l-0.57.29-0.56.24-1.12.47c-0.38.14-.78,0.26-1.17,0.4-0.78.28-1.58,0.45-2.38,0.66s-1.61.34-2.42,0.44-1.63.2-2.45,0.25-1.64.07-2.46,0.06-1.64-.05-2.46-0.11a27.49,27.49,0,0,1-4.87-.82l-1.08-.29,1-.59c4.6-2.81,9.16-5.69,13.79-8.45l6.93-4.16C152.63,65.9,154.95,64.51,157.29,63.17Zm0,0c-2.23,1.51-4.49,3-6.74,4.47L143.75,72c-4.52,2.95-9.11,5.77-13.66,8.66L130,79.82a31.87,31.87,0,0,0,4.69.77c0.79,0.07,1.59.12,2.39,0.13s1.59,0,2.39,0,1.59-.11,2.38-0.22,1.57-.25,2.35-0.41,1.56-.35,2.3-0.62c0.38-.12.75-0.23,1.13-0.37l1.13-.44,0.56-.22,0.52-.24c0.36-.16.7-0.36,1-0.55a12.59,12.59,0,0,0,1.91-1.38,12.27,12.27,0,0,0,2.88-3.72A15.7,15.7,0,0,0,157.11,68,18.85,18.85,0,0,0,157.29,63.17Z"/><path class="cls-2" d="M199.9,76.84s0.14-.15.42-0.41l0.23-.22c0.06-.07.26-0.23,0-0.22a3.16,3.16,0,0,0-.95,0A8.23,8.23,0,0,0,194.72,79a26.15,26.15,0,0,0-4,7.31,59.23,59.23,0,0,0-2.77,9.18l-0.25,1.2-0.11.59a0,0,0,0,0,0,0l0,0,0.07-.12L189,95.12l2.43-4.06,4.3-7.2Zm0,0-4.12,7.07-4.22,7.25-2.38,4.09L188,97.35l-0.09.14a0.31,0.31,0,0,1-.23.13,0.33,0.33,0,0,1-.35-0.35l0.11-.62,0.26-1.2a59.5,59.5,0,0,1,2.89-9.18,26.46,26.46,0,0,1,4.1-7.3,8.28,8.28,0,0,1,5-3,3.18,3.18,0,0,1,1,0c0.06,0,.18,0,0.1.1l-0.12.14-0.23.22C200,76.69,199.9,76.84,199.9,76.84Z"/><path class="cls-2" d="M200.7,76a31.63,31.63,0,0,1-1,6.27q-0.2.77-.45,1.53c-0.15.51-.35,1-0.53,1.5a28.91,28.91,0,0,1-1.3,2.91c-0.26.46-.49,0.95-0.78,1.39s-0.55.91-.86,1.34a29.15,29.15,0,0,1-1.93,2.54c-0.36.4-.71,0.8-1.09,1.17a12.61,12.61,0,0,1-1.2,1.07,9.29,9.29,0,0,1-1.34.9,4.25,4.25,0,0,1-1.56.54l-0.28,0,0.15-.25,6.07-10.48Q197.6,81.21,200.7,76Zm0,0q-2.94,5.3-5.94,10.56l-6,10.53-0.13-.22a4.08,4.08,0,0,0,1.43-.5,9,9,0,0,0,1.31-.86,12.36,12.36,0,0,0,1.18-1c0.38-.36.73-0.76,1.09-1.14a28.91,28.91,0,0,0,1.94-2.5c0.32-.43.59-0.88,0.87-1.32s0.53-.92.78-1.37a28.72,28.72,0,0,0,1.32-2.88c0.18-.5.38-1,0.53-1.49s0.33-1,.47-1.52A31.58,31.58,0,0,0,200.7,76Z"/><path class="cls-2" d="M172.2,70.34a6.56,6.56,0,0,0-2.13,3,4.46,4.46,0,0,0-.2.9,4.28,4.28,0,0,0,0,.92,5.35,5.35,0,0,0,.15.91,6.61,6.61,0,0,0,.31.87,10.19,10.19,0,0,0,2,3.09,12.87,12.87,0,0,0,2.93,2.29l-0.28.22c-0.48-2-1-4.07-1.45-6.11S172.64,72.39,172.2,70.34Zm0,0c0.56,2,1.11,4,1.63,6.07s1,4.06,1.54,6.09l0.11,0.43-0.38-.21a12.08,12.08,0,0,1-3-2.38c-0.22-.24-0.43-0.48-0.63-0.73s-0.38-.52-0.57-0.78-0.35-.54-0.49-0.84a6.68,6.68,0,0,1-.4-0.87,7,7,0,0,1-.3-0.93,5.61,5.61,0,0,1-.13-1,4.53,4.53,0,0,1,.06-1,4.67,4.67,0,0,1,.24-0.94,5.86,5.86,0,0,1,1-1.66A7.11,7.11,0,0,1,172.2,70.34Z"/><path class="cls-2" d="M172.08,70.37a6.67,6.67,0,0,1,3.43,1.51,5.16,5.16,0,0,1,1.68,3.38,10,10,0,0,1,0,1.91,12.5,12.5,0,0,1-1.71,5.43L175.3,83l-0.11-.44c-0.53-2-1.09-4-1.59-6.08S172.57,72.41,172.08,70.37Zm0,0c0.61,2,1.21,4,1.78,6s1.12,4,1.69,6.05l-0.35-.05A12.86,12.86,0,0,0,176.59,79a11.62,11.62,0,0,0,.3-1.83,10.75,10.75,0,0,0,0-1.85,4.89,4.89,0,0,0-1.5-3.26A6.63,6.63,0,0,0,172.08,70.37Z"/><circle class="cls-3" cx="87.84" cy="102.39" r="8.55"/><path class="cls-3" d="M21,97.5A2.67,2.67,0,0,1,20.43,95,10.13,10.13,0,0,0,20,88.82c-1.33-2.77-5.16-4.86-7.15-.7-0.95,2-.27,5.61.63,6.28,1.43,1.07,4.24,2,3.74,4.92-0.34,2-2.46,3.95-1.36,5.69s3.22,3.56,5.09,3c3.12-.9,3.41-5.85,2.57-7.44A17.21,17.21,0,0,0,21,97.5Z"/><circle class="cls-3" cx="66.18" cy="103.18" r="11.15" transform="translate(-21.33 17.34) rotate(-12.87)"/><ellipse class="cls-3" cx="114.16" cy="101.29" rx="19.79" ry="17.8" transform="translate(9.83 212.68) rotate(-88.46)"/><path class="cls-1" d="M113.67,102.58s0.78-5.31,1.64-10.61c0.2-1.33.39-2.66,0.61-3.89s0.5-2.38.76-3.36,0.48-1.79.67-2.35,0.29-.88.29-0.88l0.1,0s0,0.34,0,.93-0.12,1.43-.23,2.43-0.3,2.16-.52,3.4-0.56,2.54-.85,3.85c-1.12,5.25-2.33,10.48-2.33,10.48Z"/><path class="cls-1" d="M113.72,102.35s2.81-4,5.69-8c0.71-1,1.41-2,2.1-2.91s1.39-1.72,2-2.4,1.14-1.24,1.53-1.62,0.61-.59.61-0.59l0.08,0.06s-0.14.28-.41,0.74-0.68,1.12-1.17,1.89-1.13,1.64-1.82,2.55S120.82,94,120,94.89c-3.09,3.79-6.24,7.52-6.24,7.52Z"/><path class="cls-1" d="M114.13,102.34s3.76-2.32,7.56-4.55c0.94-.57,1.88-1.15,2.78-1.67s1.77-.92,2.53-1.25,1.4-.6,1.86-0.77,0.73-.25.73-0.25l0,0.09s-0.21.18-.6,0.48-1,.69-1.64,1.16-1.52,1-2.42,1.47-1.91,1-2.9,1.45c-3.93,2-7.9,3.94-7.9,3.94Z"/><path class="cls-1" d="M114.07,102.6s-1.44-4.93-2.8-9.88c-0.35-1.24-.72-2.47-1-3.63s-0.51-2.27-.67-3.22-0.28-1.75-.34-2.31-0.09-.89-0.09-0.89l0.1,0s0.13,0.3.33,0.83,0.47,1.29.77,2.2,0.61,2,.91,3.16,0.52,2.43.79,3.69c1.1,5,2.12,10.05,2.12,10.05Z"/><path class="cls-1" d="M114.08,102.62S110.81,99,107.6,95.3c-0.81-.91-1.63-1.82-2.37-2.69s-1.37-1.74-1.9-2.49-1-1.39-1.23-1.85-0.44-.73-0.44-0.73l0.08-.06s0.24,0.2.63,0.57,0.94,0.91,1.58,1.57,1.35,1.46,2.08,2.34,1.45,1.88,2.19,2.85c3,3.85,5.94,7.77,5.94,7.77Z"/><path class="cls-1" d="M114.1,102.63s-4.42-1.52-8.81-3.12c-1.1-.39-2.21-0.76-3.23-1.15s-1.95-.82-2.74-1.22-1.44-.72-1.88-1-0.7-.41-0.7-0.41l0-.09s0.29,0.05.79,0.18,1.21,0.32,2,.57,1.8,0.6,2.83,1,2.08,0.9,3.14,1.38c4.29,1.84,8.55,3.77,8.55,3.77Z"/><path class="cls-1" d="M114.16,102.34s4.16,0.41,8.32.91c1,0.11,2.08.21,3.05,0.34s1.86,0.33,2.63.52,1.4,0.36,1.84.51,0.69,0.23.69,0.23l0,0.1s-0.27,0-.73,0-1.12,0-1.91-.06-1.69-.15-2.67-0.28-2-.38-3-0.58c-4.11-.76-8.21-1.6-8.21-1.6Z"/><path class="cls-1" d="M114.13,102.64s-4.16.7-8.33,1.32c-1,.17-2.08.35-3.06,0.48s-1.9.17-2.69,0.19-1.45,0-1.92,0-0.73,0-.73,0v-0.1s0.25-.09.7-0.21,1.09-.27,1.87-0.44,1.69-.3,2.67-0.43,2-.16,3.09-0.24c4.2-.36,8.41-0.62,8.41-0.62v0.1Z"/><path class="cls-1" d="M114.53,102.62s-3.48,2.76-7,5.45c-0.88.68-1.75,1.38-2.58,2s-1.66,1.13-2.38,1.56-1.33.77-1.77,1-0.69.34-.69,0.34l-0.06-.08s0.19-.21.55-0.55,0.88-.8,1.51-1.35,1.4-1.14,2.24-1.75,1.79-1.19,2.72-1.8c3.69-2.48,7.43-4.88,7.43-4.88Z"/><path class="cls-1" d="M114,102.86s-0.23,4.54-.55,9.08c-0.07,1.13-.12,2.27-0.21,3.33s-0.25,2-.41,2.89-0.3,1.54-.43,2-0.2.76-.2,0.76h-0.1s0-.29,0-0.79,0-1.22,0-2.07,0.07-1.85.17-2.91,0.29-2.18.45-3.31c0.58-4.51,1.25-9,1.25-9H114Z"/><path class="cls-1" d="M114.19,102.35s3,2.72,6,5.5c0.74,0.69,1.5,1.36,2.18,2s1.26,1.34,1.74,1.93,0.88,1.09,1.13,1.46,0.4,0.58.4,0.58l-0.07.07s-0.22-.14-0.58-0.41-0.86-.66-1.45-1.14-1.24-1.09-1.91-1.76-1.33-1.45-2-2.2c-2.76-3-5.46-6-5.46-6Z"/><path class="cls-1" d="M87.92,93.49s-0.63-.06-1.56-0.2c-0.46-.07-1-0.14-1.58-0.25S83.61,92.8,83,92.67s-1.26-.13-1.8-0.32a3.9,3.9,0,0,1-1.32-.91,5,5,0,0,1-.78-1,3.44,3.44,0,0,1-.25-0.51L79,89.62a3.45,3.45,0,0,1,.53-0.21,5,5,0,0,1,1.27-.21,3.9,3.9,0,0,1,1.58.24c0.52,0.23,1,.69,1.53,1s1.06,0.63,1.54,1,0.94,0.63,1.32.9c0.77,0.53,1.27.92,1.27,0.92Z"/><path class="cls-1" d="M87.84,93.34s0.18-.74.5-1.82c0.16-.54.33-1.18,0.55-1.85s0.46-1.38.71-2.08,0.37-1.47.67-2.1A5.62,5.62,0,0,1,91.45,84a6.43,6.43,0,0,1,1.2-.89,4,4,0,0,1,.58-0.28l0.27,0.14a4,4,0,0,1,.11.63,6.44,6.44,0,0,1,0,1.5A5.62,5.62,0,0,1,93,86.91c-0.33.61-.9,1.15-1.31,1.77s-0.84,1.23-1.27,1.79S89.64,91.56,89.29,92c-0.69.9-1.18,1.47-1.18,1.47Z"/><path class="cls-1" d="M61.3,92.85s-1.22-.27-2.4-0.62C58.61,92.15,58.3,92.09,58,92a2.86,2.86,0,0,1-.68-0.41A2.62,2.62,0,0,1,56.78,91l0-.09a2.62,2.62,0,0,1,.84,0,2.86,2.86,0,0,1,.77.19c0.26,0.12.52,0.31,0.78,0.46,1.08,0.59,2.13,1.27,2.13,1.27Z"/><path class="cls-1" d="M60.81,92.37s0.85-1.71,1.85-3.28c0.25-.39.42-0.85,0.69-1.2a3.26,3.26,0,0,1,.95-0.75,3.57,3.57,0,0,1,1.28-.43l0.15,0.13a3.57,3.57,0,0,1-.21,1.34,3.25,3.25,0,0,1-.58,1.06c-0.29.32-.72,0.57-1.06,0.88C62.5,91.37,61,92.5,61,92.5Z"/><path class="cls-3" d="M30.65,101.54a2.55,2.55,0,0,0,1.69-2.08,9.44,9.44,0,0,1,3.11-5.57c2.57-2,7.47-2.11,7.78,2.74,0.15,2.31-2.11,5.39-3.33,5.59-1.95.33-5.3-.1-6,2.83-0.49,2,.88,4.87-1,6s-4.88,1.81-6.6.41c-2.88-2.33-1.07-7.11.49-8.2A18.2,18.2,0,0,1,30.65,101.54Z"/><path class="cls-3" d="M154.14,115.33a11.67,11.67,0,0,0-7.65-14.69,11.81,11.81,0,0,0-14.64,7.92,11.67,11.67,0,0,0,7.65,14.69A11.81,11.81,0,0,0,154.14,115.33Z"/><path class="cls-1" d="M148.42,101.19s-1.27,3-2.62,5.89c-0.33.73-.64,1.48-1,2.16a19.1,19.1,0,0,1-1,1.78,13.79,13.79,0,0,1-1.23,1.63l-0.09,0a13.77,13.77,0,0,1,.61-1.95,19.08,19.08,0,0,1,.83-1.89c0.36-.66.79-1.35,1.19-2,1.58-2.8,3.25-5.57,3.25-5.57Z"/><path class="cls-1" d="M142.54,112.46s2.37-1.89,4.8-3.7c0.6-.46,1.19-0.94,1.77-1.35a16.89,16.89,0,0,1,1.67-1,12.26,12.26,0,0,1,1.76-.78l0.06,0.08a12.28,12.28,0,0,1-1.36,1.36,16.88,16.88,0,0,1-1.53,1.19c-0.59.39-1.26,0.76-1.9,1.15-2.57,1.6-5.2,3.13-5.2,3.13Z"/><path class="cls-1" d="M142.81,112.53s2.73-.76,5.49-1.44c0.69-.17,1.37-0.38,2-0.52a14.79,14.79,0,0,1,1.8-.23,10.82,10.82,0,0,1,1.8,0l0,0.1a10.81,10.81,0,0,1-1.67.69,14.78,14.78,0,0,1-1.76.47c-0.65.11-1.36,0.18-2.06,0.28-2.8.42-5.62,0.75-5.62,0.75Z"/><path class="cls-1" d="M142.71,112.69s-0.2-3.09-.31-6.17c0-.77-0.1-1.54-0.11-2.27a17.5,17.5,0,0,1,.13-2,12.74,12.74,0,0,1,.36-1.93h0.1a12.72,12.72,0,0,1,.34,1.93,17.52,17.52,0,0,1,.11,2c0,0.72-.09,1.49-0.13,2.26-0.15,3.08-.39,6.17-0.39,6.17h-0.1Z"/><path class="cls-1" d="M142.72,112.71s-1.55-2.62-3-5.27c-0.37-.66-0.77-1.31-1.1-1.94a17,17,0,0,1-.76-1.79,12.32,12.32,0,0,1-.54-1.85l0.09,0a12.34,12.34,0,0,1,1.16,1.54,17,17,0,0,1,1,1.69c0.31,0.64.58,1.35,0.89,2,1.24,2.77,2.4,5.59,2.4,5.59Z"/><path class="cls-1" d="M142.73,112.73s-2.59-1.57-5.13-3.21c-0.64-.41-1.29-0.79-1.88-1.19a16.87,16.87,0,0,1-1.51-1.22,12.24,12.24,0,0,1-1.34-1.38l0.06-.08a12.24,12.24,0,0,1,1.74.81,16.86,16.86,0,0,1,1.65,1c0.57,0.42,1.14.92,1.74,1.38,2.39,1.86,4.73,3.79,4.73,3.79Z"/><path class="cls-1" d="M142.83,112.53s2.59,0.88,5.15,1.85c0.64,0.24,1.3.44,1.89,0.68a13.76,13.76,0,0,1,1.56.81,10.11,10.11,0,0,1,1.43,1l0,0.09a10.12,10.12,0,0,1-1.71-.36,13.76,13.76,0,0,1-1.65-.58c-0.58-.27-1.18-0.6-1.79-0.91-2.45-1.2-4.87-2.49-4.87-2.49Z"/><path class="cls-1" d="M142.75,112.74s-2.75-.23-5.49-0.56c-0.68-.08-1.38-0.12-2-0.21a14,14,0,0,1-1.72-.41,10.27,10.27,0,0,1-1.64-.63l0-.1a10.27,10.27,0,0,1,1.75-.06,14,14,0,0,1,1.76.17c0.63,0.12,1.3.3,2,.45,2.69,0.58,5.37,1.25,5.37,1.25Z"/><path class="cls-1" d="M143,112.79s-2.62,1.07-5.27,2c-0.66.25-1.31,0.53-1.94,0.74A14.72,14.72,0,0,1,134,116a10.77,10.77,0,0,1-1.79.2l0-.1a10.77,10.77,0,0,1,1.58-.87,14.71,14.71,0,0,1,1.69-.66c0.64-.19,1.33-0.33,2-0.51,2.73-.73,5.49-1.38,5.49-1.38Z"/><path class="cls-1" d="M142.63,112.82s-0.8,2.61-1.68,5.18c-0.22.65-.4,1.3-0.63,1.9a13.65,13.65,0,0,1-.76,1.57,10,10,0,0,1-1,1.45l-0.09,0a10,10,0,0,1,.3-1.71,13.68,13.68,0,0,1,.53-1.66c0.25-.59.57-1.19,0.85-1.81,1.12-2.48,2.33-4.92,2.33-4.92Z"/><path class="cls-1" d="M142.86,112.55s1.53,2,3,4.12c0.37,0.52.76,1,1.09,1.52a11.92,11.92,0,0,1,.76,1.44,8.84,8.84,0,0,1,.54,1.53l-0.08.05a8.83,8.83,0,0,1-1.14-1.16,11.92,11.92,0,0,1-1-1.32c-0.3-.51-0.58-1.09-0.88-1.65-1.23-2.22-2.38-4.49-2.38-4.49Z"/><circle class="cls-3" cx="164.9" cy="111.11" r="8.55" transform="matrix(0.43, -0.9, 0.9, 0.43, -6.03, 212.71)"/><path class="cls-1" d="M168.79,103.89s-1.42-2.71-2.65-5.49c-0.3-.7-0.71-1.36-1-2a8.36,8.36,0,0,1-.41-1.91,7,7,0,0,1,0-2l0.19-.07a7,7,0,0,1,1.28,1.56,8.36,8.36,0,0,1,.87,1.75c0.22,0.68.31,1.45,0.5,2.18,0.76,2.94,1.33,6,1.33,6Z"/><path class="cls-1" d="M168.78,103a33.06,33.06,0,0,1,1.2-3.16c0.18-.38.26-0.82,0.45-1.15a2.65,2.65,0,0,1,.78-0.76,3.18,3.18,0,0,1,1.15-.49l0.17,0.11a3.18,3.18,0,0,1,0,1.25,2.65,2.65,0,0,1-.37,1c-0.22.32-.59,0.57-0.86,0.89a33.06,33.06,0,0,1-2.38,2.4Z"/><path class="cls-3" d="M49.91,101a1.8,1.8,0,0,0,.56,1.65,6.82,6.82,0,0,1,1.94,3.69c0.23,2.06-1.21,4.62-3.84,3-1.25-.79-2.16-3.11-1.88-3.81,0.43-1.12,1.69-2.68.38-4.14-0.91-1-2.82-1.38-2.81-2.77s0.57-3.18,1.83-3.54c2.11-.6,4,2.12,4.13,3.33A11.59,11.59,0,0,1,49.91,101Z"/><path class="cls-3" d="M11,100.18a1.8,1.8,0,0,0,1,1.43,6.82,6.82,0,0,1,2.88,3c0.79,1.92.1,4.78-2.88,3.9-1.42-.42-2.93-2.4-2.86-3.15,0.11-1.2.89-3-.77-4.09-1.15-.73-3.09-0.55-3.46-1.89s-0.33-3.21.79-3.91c1.86-1.15,4.47.93,4.88,2.07A11.59,11.59,0,0,1,11,100.18Z"/><path class="cls-3" d="M129.2,89.76a11.11,11.11,0,0,1,8.13-4.56c5.66-.43,10.5,2,13.62,8.22,0,0,1.3,3.72.52,6.71-0.52,2-1.51,2.24-1.51,2.24"/><path class="cls-1" d="M147,88.35s1.63-.73,3.29-1.36c0.41-.16.82-0.36,1.21-0.49a5.86,5.86,0,0,1,1.12-.21,4.67,4.67,0,0,1,1.16,0l0,0.1a4.66,4.66,0,0,1-1,.66,5.85,5.85,0,0,1-1.05.45c-0.4.11-.84,0.17-1.28,0.26-1.73.39-3.49,0.69-3.49,0.69Z"/><path class="cls-1" d="M147.53,88.21s0.84-1.92,1.77-3.79c0.23-.47.43-1,0.66-1.39a8.08,8.08,0,0,1,.77-1.1,6.19,6.19,0,0,1,1-1l0.09,0a6.19,6.19,0,0,1-.34,1.3,8.07,8.07,0,0,1-.56,1.22c-0.26.42-.57,0.83-0.87,1.27-1.15,1.74-2.37,3.44-2.37,3.44Z"/><path class="cls-2" d="M85.09,77a4.32,4.32,0,0,0-1.51,1.92,2.91,2.91,0,0,0-.17.58,2.78,2.78,0,0,0-.05.6,3.48,3.48,0,0,0,.06.6,4.27,4.27,0,0,0,.17.58,6.7,6.7,0,0,0,1.2,2.11A8.65,8.65,0,0,0,86.59,85l-0.29.2c-0.22-1.36-.46-2.72-0.65-4.09S85.26,78.4,85.09,77Zm0,0c0.3,1.35.59,2.7,0.84,4.06s0.5,2.72.75,4.07l0.08,0.43-0.37-.23a7.86,7.86,0,0,1-1.89-1.72,8.1,8.1,0,0,1-.72-1.06,6.26,6.26,0,0,1-.5-1.18,4.69,4.69,0,0,1-.15-0.63,3.76,3.76,0,0,1,0-.65,3,3,0,0,1,.09-0.64,3.12,3.12,0,0,1,.21-0.61A4.35,4.35,0,0,1,85.09,77Z"/><path class="cls-2" d="M85,77a4.69,4.69,0,0,1,1.18.4,3.89,3.89,0,0,1,1,.73,3.22,3.22,0,0,1,.41.5,3.09,3.09,0,0,1,.3.57,3.8,3.8,0,0,1,.19.62,5.24,5.24,0,0,1,.08.64,6.46,6.46,0,0,1-.05,1.27A8,8,0,0,1,87.87,83a7.86,7.86,0,0,1-1.11,2.29l-0.26.36-0.08-.44c-0.25-1.36-.53-2.71-0.75-4.08S85.21,78.41,85,77Zm0,0c0.33,1.34.65,2.69,0.94,4s0.56,2.7.85,4.06l-0.34-.08a8.64,8.64,0,0,0,1.06-2.16,7.16,7.16,0,0,0,.36-2.39,4.82,4.82,0,0,0,0-.59,3.55,3.55,0,0,0-.15-0.57,2.83,2.83,0,0,0-.25-0.54,3,3,0,0,0-.36-0.48A4.33,4.33,0,0,0,85,77Z"/><path class="cls-2" d="M4.15,83.6a3.52,3.52,0,0,0-1.27,1.14,2.5,2.5,0,0,0-.4,1.6,5.78,5.78,0,0,0,1.59,2.94A16.65,16.65,0,0,0,6.6,91.61a23.57,23.57,0,0,0,2.89,1.87l-0.25.26C7.5,90.39,5.79,87,4.15,83.6Zm0,0c1.87,3.29,3.66,6.62,5.42,10L9.86,94.1l-0.54-.28a19.52,19.52,0,0,1-3-1.91A17,17,0,0,1,3.81,89.5C3.63,89.27,3.43,89,3.27,88.8a8.75,8.75,0,0,1-.48-0.74,4,4,0,0,1-.54-1.7,2.51,2.51,0,0,1,.53-1.69A3.58,3.58,0,0,1,4.15,83.6Z"/><path class="cls-2" d="M4,83.61a12,12,0,0,1,3.11,1.27,7.2,7.2,0,0,1,2.47,2.31,5.6,5.6,0,0,1,.41.76,7.64,7.64,0,0,1,.29.8,7,7,0,0,1,.27,1.7,6.2,6.2,0,0,1-.17,1.71,5.35,5.35,0,0,1-.67,1.61L9.56,94l-0.16-.29c-0.91-1.68-1.84-3.35-2.73-5S4.9,85.31,4,83.61Zm0,0q1.48,2.46,2.9,4.95c1,1.66,1.87,3.33,2.81,5l-0.34,0A5.25,5.25,0,0,0,10,92.06a5.83,5.83,0,0,0,.18-1.61A6.64,6.64,0,0,0,10,88.84c-0.07-.26-0.17-0.54-0.25-0.78a5.34,5.34,0,0,0-.36-0.73A7.15,7.15,0,0,0,7.05,85,11.89,11.89,0,0,0,4,83.61Z"/><path class="cls-2" d="M191.84,117.09L10.17,187.61a0.43,0.43,0,0,0,.16.84H131.22a0.43,0.43,0,0,0,.17,0l60.78-26a0.43,0.43,0,0,0,.26-0.4V117.5A0.43,0.43,0,0,0,191.84,117.09Z"/><text class="cls-4" transform="translate(96.37 185.43) rotate(-21.91)">HEA<tspan class="cls-5" x="46.47" y="0">L</tspan><tspan x="57.2" y="0">THY</tspan></text></svg>