<svg id="Layer_1" data-name="Layer 1" xmlns="http://www.w3.org/2000/svg" viewBox="0 0 200 200">
    <defs><style>.cls-1{fill:#d3d3d3;}.cls-2{fill:none;stroke:#d3d3d3;stroke-miterlimit:10;}.cls-3{fill:#cc5867;}.cls-4{font-size:41.1px;fill:#fff;font-family:Chalkboard SE;}</style></defs><title>Icons_Snackoo</title><path class="cls-1" d="M172.18,186.64H28.86A4.87,4.87,0,0,1,24,181.76V98.88A4.87,4.87,0,0,1,29.32,94l143.32,13.4a4.87,4.87,0,0,1,4.42,4.85v69.48A4.87,4.87,0,0,1,172.18,186.64Z"/><rect class="cls-2" x="21.68" y="43.31" width="35.3" height="82.17" transform="translate(-36.93 30.97) rotate(-30)"/><rect class="cls-2" x="98.21" y="71.57" width="63.45" height="49.47" transform="translate(9.21 -11.32) rotate(5.17)"/><path class="cls-2" d="M100.52,68.65a10.14,10.14,0,1,1,20.18,2"/><path class="cls-2" d="M122.18,70.87a10.14,10.14,0,1,1,20.18,2"/><path class="cls-2" d="M142.14,72c0.56-5.57,5.84-9.61,11.8-9s10.33,5.61,9.76,11.18"/><rect class="cls-2" x="67.76" y="84.52" width="29.94" height="30.48" rx="8.81" ry="8.81" transform="translate(5.3 -4.17) rotate(2.98)"/><path class="cls-3" d="M58,64.76S56.12,62.48,53.31,59c-1.41-1.73-3.06-3.75-4.79-5.93S45,48.56,43.11,46.22c-0.94-1.16-1.85-2.33-2.79-3.45s-1.84-2.25-2.66-3.38a63,63,0,0,1-4-6.48c-0.55-1-1-1.91-1.41-2.73s-0.73-1.56-1-2.17c-0.52-1.22-.76-2-0.76-2l0.33-.23s0.62,0.47,1.61,1.36c0.5,0.44,1.08,1,1.73,1.65s1.37,1.39,2.11,2.23A63,63,0,0,1,41.05,37c0.79,1.14,1.56,2.36,2.32,3.62s1.56,2.51,2.35,3.77c1.61,2.5,3.24,5,4.71,7.35s2.86,4.57,4,6.47c2.36,3.79,3.89,6.35,3.89,6.35Z"/><path class="cls-3" d="M49.85,38.42L48,34.63c-1.14-2.27-2.59-5.33-4.06-8.39-0.72-1.53-1.53-3-2.17-4.48a42.17,42.17,0,0,1-1.48-4.08,29.52,29.52,0,0,1-1-4.17l0.18-.08a29.53,29.53,0,0,1,2.3,3.62,42.25,42.25,0,0,1,1.92,3.89c0.6,1.47,1.12,3.08,1.73,4.67,1.18,3.17,2.39,6.34,3.24,8.73l1.42,4Z"/><rect class="cls-2" x="162.05" y="89.04" width="14.99" height="30.48" transform="translate(5.65 -8.68) rotate(2.98)"/><path class="cls-3" d="M98.23,71.53s-2.4-4.79-4.72-9.62c-0.59-1.2-1.2-2.4-1.73-3.53s-1-2.23-1.3-3.18-0.63-1.74-.79-2.3S89.42,52,89.42,52l0.09,0s0.19,0.28.49,0.79,0.72,1.24,1.2,2.12,1,1.94,1.52,3.08,1,2.4,1.51,3.63c2.08,4.93,4.09,9.91,4.09,9.91Z"/><path class="cls-3" d="M22,94.69s-3.32-4.21-6.56-8.47c-0.82-1.06-1.65-2.11-2.4-3.11s-1.38-2-1.91-2.85-1-1.58-1.24-2.1-0.44-.82-0.44-0.82l0.08-.06s0.24,0.24.64,0.67,1,1.07,1.6,1.83,1.36,1.7,2.11,2.71,1.46,2.15,2.21,3.26c3,4.41,6,8.88,6,8.88Z"/><path class="cls-3" d="M180.31,99.77L182,96.7c1-1.84,2.44-4.26,3.85-6.68,0.71-1.21,1.35-2.46,2.05-3.57a28.92,28.92,0,0,1,2.17-2.87,20.63,20.63,0,0,1,2.5-2.54l0.17,0.11a20.63,20.63,0,0,1-1.33,3.31,29,29,0,0,1-1.76,3.13c-0.73,1.09-1.63,2.17-2.46,3.31-1.66,2.26-3.3,4.53-4.59,6.2l-2.13,2.79Z"/><path class="cls-3" d="M93.92,42.7s1.32,5.3,2.55,10.62c0.32,1.33.65,2.65,0.93,3.9s0.45,2.43.59,3.45,0.24,1.87.28,2.47,0.07,0.94.07,0.94l-0.1,0s-0.13-.32-0.31-0.89-0.43-1.39-.72-2.38-0.55-2.15-.82-3.4-0.46-2.6-.69-3.95c-1-5.37-1.86-10.76-1.86-10.76Z"/><path class="cls-3" d="M145.79,57.75s0.25-2.92.72-7.27c0.23-2.18.49-4.72,0.81-7.44s0.69-5.61,1.06-8.51,0.52-5.83,1-8.52a50.26,50.26,0,0,1,2-7.22c0.37-1,.74-2,1.09-2.83s0.68-1.56,1-2.15c0.59-1.19,1-1.85,1-1.85L154.92,12s0.15,0.77.26,2.09c0.06,0.66.1,1.46,0.13,2.36s0,1.93,0,3a50.19,50.19,0,0,1-.8,7.44c-0.54,2.68-1.5,5.46-2.18,8.3s-1.39,5.66-2.11,8.31-1.37,5.11-2,7.23c-1.15,4.23-2,7-2,7Z"/><path class="cls-3" d="M155.7,45s0.88-3,2.32-7.4c0.71-2.22,1.53-4.8,2.46-7.55s1.95-5.67,3-8.59c0.51-1.46,1-2.94,1.43-4.4s0.92-2.89,1.46-4.23a46.59,46.59,0,0,1,3.76-7c0.63-1,1.25-1.88,1.84-2.65s1.11-1.44,1.58-2a21.82,21.82,0,0,1,1.55-1.65l0.55,0.24A21.86,21.86,0,0,1,175.49,2c-0.06.71-.18,1.55-0.33,2.51s-0.36,2-.64,3.16a46.57,46.57,0,0,1-2.44,7.56c-0.59,1.32-1.29,2.65-2,4s-1.48,2.7-2.18,4.08c-1.4,2.76-2.77,5.53-4.14,8.09s-2.63,5-3.74,7c-2.19,4.1-3.73,6.8-3.73,6.8Z"/><path class="cls-3" d="M132.92,50.41s-0.54-1.71-1.29-4.3c-0.38-1.29-.83-2.79-1.28-4.41s-0.92-3.35-1.39-5.07c-0.25-.86-0.48-1.72-0.75-2.57s-0.5-1.68-.68-2.5a23.68,23.68,0,0,1-.38-2.39c-0.1-.76-0.16-1.49-0.2-2.17a23,23,0,0,1,.11-4.59l0.29-.06a23,23,0,0,1,1.94,4.16c0.24,0.63.47,1.33,0.69,2.07a23.68,23.68,0,0,1,.6,2.34c0.16,0.82.28,1.68,0.37,2.56s0.23,1.76.34,2.65c0.26,1.77.54,3.54,0.76,5.2s0.43,3.22.6,4.55c0.35,2.67.54,4.45,0.54,4.45Z"/><path class="cls-3" d="M157.52,55s2.91-4.5,5.9-8.94c0.74-1.12,1.46-2.25,2.17-3.28s1.44-2,2.08-2.73,1.18-1.42,1.59-1.85,0.63-.68.63-0.68L170,37.59s-0.15.31-.43,0.82-0.7,1.24-1.22,2.11-1.17,1.84-1.88,2.87-1.56,2.07-2.37,3.14c-3.2,4.3-6.47,8.54-6.47,8.54Z"/><path class="cls-3" d="M0.13,76.72l2.63,2c1.58,1.18,3.63,2.83,5.7,4.45,1,0.82,2.11,1.57,3,2.37a25.47,25.47,0,0,1,2.36,2.41,18.3,18.3,0,0,1,2,2.7l-0.13.15a18.3,18.3,0,0,1-2.92-1.65,25.48,25.48,0,0,1-2.68-2c-0.91-.83-1.79-1.82-2.73-2.74-1.86-1.86-3.74-3.69-5.11-5.12L0,76.87Z"/><path class="cls-3" d="M169,83.21s1-2.45,2.55-6.08c0.79-1.81,1.7-3.92,2.72-6.16s2.13-4.62,3.24-7c0.56-1.19,1.07-2.4,1.57-3.6a34.69,34.69,0,0,1,1.59-3.44,33.63,33.63,0,0,1,3.93-5.48,30.19,30.19,0,0,1,3.5-3.47,16.8,16.8,0,0,1,1.56-1.18l0.52,0.3A16.82,16.82,0,0,1,190,49a30.24,30.24,0,0,1-1.18,4.78A33.66,33.66,0,0,1,186.13,60,34.63,34.63,0,0,1,184,63.15c-0.77,1-1.55,2.11-2.28,3.19-1.47,2.17-2.92,4.36-4.35,6.37s-2.75,3.89-3.9,5.5c-2.31,3.2-3.91,5.3-3.91,5.3Z"/><path class="cls-3" d="M92,64.17s-1.27-1.47-3.13-3.72c-0.93-1.12-2-2.42-3.17-3.84s-2.36-2.93-3.57-4.44l-1.85-2.23c-0.62-.73-1.22-1.46-1.76-2.19s-1-1.47-1.43-2.2-0.82-1.4-1.16-2.05A26.66,26.66,0,0,1,74,39l0.24-.17a26.67,26.67,0,0,1,3.67,3.33c0.51,0.53,1,1.12,1.57,1.76s1.08,1.33,1.61,2.07,1,1.55,1.5,2.37l1.52,2.47c1,1.64,2.1,3.26,3.05,4.81s1.85,3,2.61,4.24C91.27,62.32,92.25,64,92.25,64Z"/><path class="cls-3" d="M190.18,90.42s2.28-2.35,4.63-4.63c0.58-.57,1.14-1.17,1.7-1.69a19.68,19.68,0,0,1,1.64-1.31,14.18,14.18,0,0,1,1.75-1.11L200,81.75a14.21,14.21,0,0,1-1.29,1.63,19.66,19.66,0,0,1-1.48,1.49c-0.58.5-1.23,1-1.87,1.51-2.52,2.09-5.1,4.11-5.1,4.11Z"/><path class="cls-3" d="M175.34,108.72l-147,75.69a1.18,1.18,0,0,0,.54,2.22h91.63a1.18,1.18,0,0,0,.53-0.12l55.4-27.78a1.18,1.18,0,0,0,.65-1.05V109.77A1.18,1.18,0,0,0,175.34,108.72Z"/><text class="cls-4" transform="translate(109.32 183.72) rotate(-27.47)">H<tspan x="25.57" y="0">O</tspan><tspan x="55.45" y="0">T</tspan></text>
</svg>