<svg id="Layer_1" data-name="Layer 1" xmlns="http://www.w3.org/2000/svg" viewBox="0 0 200 200"><defs><style>.cls-1{fill:#d3d3d3;}.cls-2,.cls-6{fill:#fff;}.cls-3{fill:#eebbc4;}.cls-4{fill:none;stroke:#cc5867;stroke-miterlimit:10;}.cls-5{fill:#cc5867;}.cls-6{font-size:43.41px;font-family:Chalkboard SE;}.cls-7{letter-spacing:-3px;}</style></defs><title>Icons_Snackoo</title><path class="cls-1" d="M183.31,187.62H19.6a3.45,3.45,0,0,1-3.45-3.3L10.61,61.4a3.45,3.45,0,0,1,3.45-3.61H188.85a3.45,3.45,0,0,1,3.45,3.61l-5.54,122.92A3.45,3.45,0,0,1,183.31,187.62Z"/><path class="cls-2" d="M20.56,123.4l6.76-.19c4.3-.08,10.44-0.28,17.81-0.37s16-.27,25.19-0.31l28.87-.13,28.87,0.13c9.21,0,17.81.22,25.19,0.3s13.51,0.29,17.81.37l6.76,0.19-6.76.19c-4.3.08-10.44,0.28-17.81,0.37s-16,.27-25.19.3l-28.87.13-28.87-.13c-9.21,0-17.81-.22-25.19-0.31s-13.51-.29-17.81-0.37Z"/><path class="cls-2" d="M104,73.08L104.26,91c0.07,5.37.15,11.64,0.18,18.35s0.09,13.88.13,21c0,3.58.08,7.16,0.12,10.69s0.09,7,.06,10.35-0.14,6.6-.29,9.67l-0.21,4.48L104,169.75c-0.16,2.68-.36,5.14-0.54,7.32s-0.37,4.08-.54,5.64c-0.33,3.13-.59,4.91-0.59,4.91h-0.4s-0.21-1.79-.44-4.93c-0.12-1.57-.25-3.47-0.37-5.66s-0.24-4.65-.32-7.33l-0.13-4.19L100.58,161c-0.06-3.08-.05-6.32,0-9.68s0.2-6.82.36-10.34l0.43-10.68,0.75-21c0.22-6.71.49-13,.72-18.34l0.78-17.89H104Z"/><path class="cls-2" d="M183.42,186.74l-1.3-64.51c-0.16-8.06-.35-16.13-0.45-23.69,0-3.78-.13-7.43-0.14-10.9s0-6.74-.06-9.77c0-12.1,0-20.17,0-20.17h0.1s0.34,8.06.65,20.16l0.23,9.76c0.09,3.46.11,7.12,0.18,10.9,0.13,7.56.18,15.62,0.25,23.69l0.6,64.52h-0.1Z"/><path class="cls-2" d="M14.52,58.6l1.3,64.51c0.16,8.06.35,16.13,0.45,23.69,0,3.78.13,7.43,0.14,10.9s0,6.74.06,9.77c0,12.1,0,20.17,0,20.17h-0.1s-0.34-8.06-.65-20.16l-0.23-9.76c-0.09-3.46-.11-7.12-0.18-10.9-0.13-7.56-.18-15.62-0.25-23.69L14.42,58.6h0.1Z"/><line class="cls-3" x1="27.81" y1="59.52" x2="181.12" y2="65.2"/><path class="cls-2" d="M27.82,59.42l24,0.64,52.72,1.5,28.16,0.8c4.49,0.2,8.83.33,12.95,0.56l11.6,0.6c3.59,0.18,6.88.41,9.8,0.58s5.46,0.34,7.55.5c4.19,0.29,6.58.5,6.58,0.5v0.2s-2.4,0-6.6,0c-2.1,0-4.65,0-7.57-.06s-6.22-.05-9.81-0.14l-11.61-.26c-4.12-.08-8.46-0.26-13-0.4l-28.14-1.28-52.68-2.4L27.81,59.62v-0.2Z"/><rect class="cls-4" x="119.8" y="16.08" width="17.6" height="46.34" transform="translate(98.29 -91.74) rotate(60)"/><path class="cls-5" d="M111.26,41q-3.25,4.64-6.57,9.23c-2.21,3.06-4.38,6.15-6.62,9.19l-0.31.42-0.44-.32L86,51.29l-5.65-4.13L74.73,43,52.28,26.26l-0.8-.6,0.61-.8,13.7-18,0.55-.72L67,6.64c3.71,2.83,7.45,5.63,11.14,8.49L89.24,23.7,94.78,28l5.5,4.33C103.95,35.21,107.62,38.1,111.26,41Zm0,0c-3.83-2.68-7.61-5.41-11.41-8.13l-5.69-4.09-5.65-4.13L77.2,16.42C73.43,13.67,69.71,10.85,66,8.07l1.25-.18L53.68,26.06l-0.2-1.4L75.78,41.6l5.57,4.24,5.54,4.29L98,58.7l-0.75.11c2.3-3,4.67-5.94,7-8.91S108.89,44,111.26,41Z"/><path class="cls-5" d="M18.76,185.81L190.77,59a1,1,0,0,1,1.6.85l-3.25,72a1,1,0,0,1-.37.74L121.2,187.4a1,1,0,0,1-.63.22H19.35A1,1,0,0,1,18.76,185.81Z"/><text class="cls-6" transform="translate(111.83 176.38) rotate(-37.77)">B<tspan class="cls-7" x="23.89" y="0">O</tspan><tspan x="51.9" y="0">X</tspan></text>
</svg>