<svg id="Layer_1" data-name="Layer 1" xmlns="http://www.w3.org/2000/svg" viewBox="0 0 200 200"><defs><style>.cls-1{fill:#eebbc4;}.cls-2,.cls-7{fill:#cc5867;}.cls-3{fill:#d3d3d3;}.cls-4,.cls-8{fill:#fff;}.cls-5,.cls-6{fill:none;stroke-miterlimit:10;}.cls-5{stroke:#d3d3d3;}.cls-6{stroke:#cc5867;stroke-width:2px;}.cls-7{font-size:57.95px;font-family:Helvetica Neue;font-weight:700;}.cls-8{font-size:36.08px;font-family:Chalkboard SE;}</style></defs><title>Icons_Snackoo</title><path class="cls-1" d="M86.91,169.69l-1-42.31-0.35-15.54c0-2.48,0-4.88-.07-7.15s0-4.42,0-6.41c0-7.94.15-13.23,0.15-13.23h0.1s0.29,5.29.54,13.22l0.18,6.4,0.15,7.15c0,5,.07,10.25.11,15.54L87,169.69h-0.1Z"/><path class="cls-2" d="M124.36,37.93c-5.58-8.12-13.27-18.79-22.91-22.17-5.19-1.83-11.82-3.65-17.23-1.87-7.3,2.41-13.17,10-15.89,16.92C65.76,37.34,64,47.5,54.59,44.39c-4.72-1.56-9.84-5.51-15.07-4.78-4.79.67-6.91,5.88-7.35,10.17-0.62,6.09,2,12.18,4.92,17.37,5.62,10,13.67,19,22.21,26.57,0.48,0.43,1.19-.28.71-0.71A120.59,120.59,0,0,1,42.85,74.16c-3.77-5.15-7.35-10.85-9-17.08-1.49-5.68-1-16.92,7.24-16.51C49.81,41,58,51.5,65.1,41.75A21.64,21.64,0,0,0,68,35.13a34.6,34.6,0,0,1,6.06-12c3.22-4,7.28-7.89,12.55-8.79,3.42-.58,6.64.29,9.93,1.16,7.4,1.94,12.43,5.67,17.65,11.29a102.93,102.93,0,0,1,9.35,11.63c0.36,0.53,1.23,0,.86-0.5h0Z"/><polygon class="cls-3" points="98.85 169.62 10.25 169.62 7.21 102.08 101.89 102.08 98.85 169.62"/><path class="cls-4" d="M12.47,136.21l3.52-.1,9.27-.18c3.83,0,8.31-.13,13.1-0.15l15-.07,15,0.07c4.79,0,9.27.11,13.1,0.15s7,0.14,9.27.18l3.52,0.1-3.52.1c-2.24,0-5.43.14-9.27,0.18s-8.31.14-13.1,0.15l-15,.07-15-.07c-4.79,0-9.27-.11-13.1-0.15L16,136.3Z"/><path class="cls-4" d="M55.83,110s0,14.9-.09,29.8c0,3.72,0,7.45,0,10.94,0,1.75-.05,3.43-0.11,5l-0.15,4.51-0.17,3.81c0,1.13-.1,2.12-0.15,2.94l-0.16,2.56h-0.1l-0.09-2.56c0-.82-0.05-1.81-0.07-2.94s0-2.42-.05-3.81l0-4.51c0-1.6,0-3.29,0-5l0.28-10.94L55.73,110h0.1Z"/><path class="cls-4" d="M10.24,169.62L9.39,136.06l-0.3-12.32c0-2-.05-3.87,0-5.67s0-3.51,0-5.08c0-6.29.19-10.49,0.19-10.49h0.1s0.28,4.19.5,10.48L10,118.06c0.06,1.8.08,3.7,0.12,5.67,0,3.93,0,8.13.06,12.32,0.07,16.78.15,33.56,0.15,33.56h-0.1Z"/><line class="cls-1" x1="16.24" y1="105.05" x2="95.99" y2="108.01"/><path class="cls-4" d="M16.24,104.95l12.47,0.21c7.48,0.11,17.46.35,27.43,0.57,5,0.09,10,.16,14.65.3,2.34,0.11,4.59.18,6.73,0.32s4.16,0.25,6,.39,3.58,0.3,5.09.42,2.84,0.24,3.92.37c2.18,0.22,3.42.38,3.42,0.38v0.2s-1.25.07-3.44,0.12c-1.09,0-2.42.07-3.94,0.07s-3.24.05-5.11,0-3.9,0-6-.06-4.4-.12-6.74-0.18c-4.67-.21-9.65-0.51-14.63-0.78-10-.53-19.93-1-27.4-1.47l-12.45-.71v-0.2Z"/><rect class="cls-5" x="64.09" y="80.38" width="9.15" height="24.1" transform="translate(114.38 -13.25) rotate(60)"/><path class="cls-3" d="M59.65,93.36c-1.08,1.65-2.19,3.27-3.3,4.89S54.13,101.5,53,103.1l-0.3.43-0.45-.32q-6-4.19-11.85-8.48c-2-1.44-3.93-2.85-5.87-4.31l-5.84-4.35-0.81-.6,0.61-.8c2.38-3.12,4.73-6.27,7.14-9.37l0.58-.74,0.72,0.56,5.75,4.47,5.71,4.52c1.9,1.52,3.79,3,5.66,4.6S57.8,91.77,59.65,93.36Zm0,0c-2-1.33-4-2.72-6-4.09s-4-2.76-6-4.16L41.7,80.87l-5.89-4.29,1.3-.18c-2.31,3.17-4.68,6.31-7,9.46l-0.2-1.4,5.8,4.41c1.94,1.46,3.85,3,5.77,4.44q5.76,4.46,11.44,9l-0.76.11c1.22-1.54,2.49-3,3.74-4.56S58.37,94.85,59.65,93.36Z"/><path class="cls-4" d="M97.51,169.65L96.69,138,96.4,126.33c0-1.86-.05-3.65,0-5.36s0-3.31,0-4.8l0.05-4.06L96.49,109l0.09-2.73h0.1L96.84,109,97,112.11l0.17,4.05,0.15,4.8c0.06,1.7.08,3.5,0.12,5.35,0,3.71,0,7.68.05,11.64l0.12,31.7h-0.1Z"/><path class="cls-2" d="M81.24,73.32c2.73-3.62,5.54-7.17,8.31-10.75l4.2-5.34L98,51.92q8.48-10.62,17.11-21.1l-0.18.33,0.32-.79c0.13-.25.28-0.5,0.43-0.74s0.35-.45.53-0.67,0.41-.39.61-0.59,0.45-.33.68-0.5,0.49-.27.74-0.4l0.78-.3,0.81-.21,0.83-.1h0.84l0.83,0.11c0.27,0.07.55,0.13,0.82,0.21s0.53,0.2.79,0.33,0.5,0.28.74,0.43,0.45,0.35.67,0.54l0.58,0.63-0.3-.25c4,2.2,8.05,4.4,12.06,6.64s8,4.46,12,6.72l6,3.4,6,3.43c4,2.32,7.95,4.6,11.88,7-4.13-2-8.21-4.12-12.31-6.18l-6.12-3.14L149,43.49q-6.11-3.18-12.18-6.42c-4.06-2.14-8.09-4.33-12.13-6.51l-0.13-.07-0.17-.18L124,29.9l-0.45-.35L123,29.26,122.5,29l-0.56-.14-0.58-.07h-0.59l-0.59.07L119.6,29l-0.55.21-0.52.28-0.47.34-0.42.4c-0.12.15-.24,0.29-0.36,0.45l-0.29.49-0.22.53-0.09.22-0.09.11q-8.67,10.45-17.5,20.78L94.68,58l-4.45,5.13C87.23,66.53,84.28,70,81.24,73.32Z"/><path class="cls-2" d="M173.22,55c2,9.32,3.89,18.65,5.8,28l2.86,14,2.78,14,5.56,28c1.87,9.34,3.63,18.7,5.45,28.05l0.26,1.35-1.37.26-46.12,8.78L102.3,186l-1.37.25-0.25-1.36-5.1-28.12-5-28.14L88.1,114.59,85.69,100.5c-1.6-9.39-3.22-18.78-4.75-28.18,2,9.32,3.89,18.65,5.8,28l2.86,14,2.78,14,5.56,28,5.45,28.05-1.62-1.11,46.12-8.78L194.07,166l-1.1,1.61c-1.7-9.37-3.45-18.74-5.1-28.12l-5-28.14-2.49-14.07L178,83.17C176.37,73.78,174.75,64.39,173.22,55Z"/><circle class="cls-6" cx="125.61" cy="48.93" r="9.14" transform="translate(-6.87 24.03) rotate(-10.64)"/><text class="cls-7" transform="translate(104.21 111.22)">%</text><polygon class="cls-2" points="102.04 184.66 191.16 150.49 183.29 108.6 93.99 141.82 102.04 184.66"/><text class="cls-8" transform="translate(108.76 172.44) rotate(-20.27)">SALE</text>
</svg>